<?xml version="1.0" encoding="UTF-8"?>
<svg version="1.1" xmlns="http://www.w3.org/2000/svg" width="500" height="500">
<path d="M0 0 C1.49437581 -0.00644705 2.98875043 -0.01317673 4.48312378 -0.02017212 C7.60466428 -0.03208465 10.72609466 -0.0358594 13.84765625 -0.03466797 C17.80098908 -0.03446557 21.75359669 -0.06171219 25.7067585 -0.09621239 C28.7921965 -0.11871764 31.87746678 -0.12249833 34.96297836 -0.12144852 C36.41789105 -0.12377131 37.87281083 -0.13240127 39.32764053 -0.14811325 C52.06264461 -0.27274157 63.70348524 1.8174868 75.5390625 6.62890625 C77.98824988 7.51551208 80.4590214 8.10473866 82.9921875 8.7109375 C99.85652827 12.83709365 115.55684247 18.68832991 130.3046875 27.98046875 C132.48838599 29.33358192 134.71603465 30.52148957 136.9921875 31.7109375 C141.36933753 34.11106195 145.08243526 37.09421979 148.91796875 40.2734375 C152.35673416 43.02862435 155.98308538 45.46068533 159.65625 47.890625 C160.26210938 48.36757812 160.86796875 48.84453125 161.4921875 49.3359375 C161.4921875 49.9959375 161.4921875 50.6559375 161.4921875 51.3359375 C162.05421875 51.59117188 162.61625 51.84640625 163.1953125 52.109375 C174.81191935 58.31280111 183.74719308 69.41927739 192.15625 79.2890625 C192.67960937 79.90265625 193.20296875 80.51625 193.7421875 81.1484375 C194.20109375 81.69113281 194.66 82.23382813 195.1328125 82.79296875 C196.49566946 84.38816466 196.49566946 84.38816466 198.1640625 85.91015625 C199.4921875 87.3359375 199.4921875 87.3359375 199.4921875 89.3359375 C200.1521875 89.3359375 200.8121875 89.3359375 201.4921875 89.3359375 C202.859375 91.05859375 202.859375 91.05859375 204.3671875 93.3984375 C204.89699219 94.21570313 205.42679687 95.03296875 205.97265625 95.875 C207.27284273 97.98070046 208.49347036 100.10252273 209.6796875 102.2734375 C211.30475389 105.52408147 211.30475389 105.52408147 214.4921875 107.3359375 C215.51953125 109.03515625 215.51953125 109.03515625 216.4296875 111.0234375 C217.74141929 113.81403292 219.13421352 116.45522388 220.7421875 119.0859375 C222.4921875 122.3359375 222.4921875 122.3359375 222.4921875 126.3359375 C223.4821875 126.6659375 224.4721875 126.9959375 225.4921875 127.3359375 C226.30078125 129.12109375 226.30078125 129.12109375 226.9296875 131.3984375 C228.12019146 135.33146367 229.63533825 138.80890618 231.5234375 142.44921875 C236.93120605 152.98128411 240.45820288 164.61953465 243.7109375 175.96875 C244.39377263 178.294704 244.39377263 178.294704 245.48779297 180.09985352 C246.75239621 182.91524027 247.01917811 185.41110818 247.34375 188.48046875 C247.53783447 190.31315308 247.53783447 190.31315308 247.73583984 192.18286133 C247.92460693 194.14582153 247.92460693 194.14582153 248.1171875 196.1484375 C248.18222473 196.8226474 248.24726196 197.4968573 248.31427002 198.1914978 C250.58775007 222.14729376 254.49963134 264.02885516 241.4921875 285.3359375 C240.93755652 288.78158246 240.59566466 292.15571423 240.3203125 295.62890625 C239.91513687 299.79754009 239.40846702 301.47944608 236.4921875 304.3359375 C235.64827381 306.17603643 235.64827381 306.17603643 235.09765625 308.21484375 C234.86731689 308.96660889 234.63697754 309.71837402 234.3996582 310.49291992 C234.16206787 311.28674072 233.92447754 312.08056152 233.6796875 312.8984375 C231.68830502 319.23373931 229.47996976 324.73522013 225.79296875 330.30859375 C224.29259597 332.51529356 224.29259597 332.51529356 222.9921875 335.9609375 C221.69172351 338.88698149 220.51733267 340.69635464 218.5546875 343.1484375 C216.24507319 346.07921948 214.85532087 348.69463872 213.6171875 352.2109375 C211.74868426 357.31399258 208.87186168 360.955878 205.3828125 365.078125 C203.84873791 366.9101397 202.51667765 368.69805227 201.2421875 370.7109375 C199.4921875 373.3359375 199.4921875 373.3359375 197.62890625 375.19140625 C195.398246 377.43022248 193.49477331 379.7801391 191.5546875 382.2734375 C188.70366807 385.86773946 185.93500955 389.29815334 182.4921875 392.3359375 C181.8321875 392.3359375 181.1721875 392.3359375 180.4921875 392.3359375 C180.1621875 393.3259375 179.8321875 394.3159375 179.4921875 395.3359375 C178.8321875 395.3359375 178.1721875 395.3359375 177.4921875 395.3359375 C177.1621875 396.3259375 176.8321875 397.3159375 176.4921875 398.3359375 C174.4453125 400.24609375 174.4453125 400.24609375 171.7421875 402.3984375 C170.75476563 403.18734375 169.76734375 403.97625 168.75 404.7890625 C164.33808308 408.2507618 159.89602142 411.67281604 155.4375 415.07421875 C153.57754479 416.50248675 151.73600375 417.95536461 149.921875 419.44140625 C147.53127616 421.3054584 145.118027 422.82659669 142.4921875 424.3359375 C141.72519531 424.79613281 140.95820313 425.25632812 140.16796875 425.73046875 C138.49938686 426.73161788 136.83004257 427.73149688 135.16015625 428.73046875 C133.44882309 429.76027538 131.74257885 430.79861461 130.04296875 431.84765625 C119.14337981 438.53484367 107.56579802 444.36473003 95.390625 448.3515625 C92.58326631 449.21957427 92.58326631 449.21957427 90.4765625 450.40234375 C87.92063267 451.6048383 85.53703326 451.89330951 82.7421875 452.2734375 C78.34555317 452.95025272 74.53528741 453.91002811 70.44140625 455.609375 C67.49007345 456.70947099 64.45871562 457.29380474 61.375 457.90625 C59.41674055 458.27491188 59.41674055 458.27491188 57.4921875 459.3359375 C47.21139145 460.72747079 36.74144541 460.49010246 26.39111328 460.46630859 C23.6291756 460.46096071 20.86740145 460.46627765 18.10546875 460.47265625 C2.22132289 460.4828066 -12.98195081 459.56763997 -28.58081055 456.43457031 C-30.96502599 455.9569887 -33.3522008 455.49712832 -35.74023438 455.0390625 C-37.28666148 454.73540772 -38.83289324 454.43075609 -40.37890625 454.125 C-41.0780162 453.99050446 -41.77712616 453.85600891 -42.49742126 453.71743774 C-47.39792609 452.72022555 -51.85615881 451.17521781 -56.5078125 449.3359375 C-57.87896976 448.86623311 -59.25326455 448.40539437 -60.6328125 447.9609375 C-62.2578125 447.41927083 -63.8828125 446.87760417 -65.5078125 446.3359375 C-66.60738281 445.97628906 -67.70695313 445.61664063 -68.83984375 445.24609375 C-75.29774323 443.05614517 -81.01372812 440.68967523 -86.74609375 437.00390625 C-90.25176405 434.88662023 -93.88968633 433.12590639 -97.5703125 431.3359375 C-103.55489845 428.39257423 -109.09166287 425.24608908 -114.5078125 421.3359375 C-115.60707723 420.57538179 -116.70743148 419.81639953 -117.80859375 419.05859375 C-133.43526593 408.21988469 -146.86918867 395.1294218 -158.5703125 380.1484375 C-160.81731864 377.29646816 -162.71106202 375.17416748 -165.5703125 372.8984375 C-171.75588138 367.50251571 -175.38489968 359.67407671 -179.25390625 352.5234375 C-181.01711656 349.44743198 -183.02880447 346.56307856 -185.078125 343.671875 C-186.55016453 341.26673938 -187.62835454 338.80356118 -188.70410156 336.20117188 C-189.78839995 333.68475642 -191.04818301 331.27588762 -192.31152344 328.84570312 C-198.79791956 316.32501205 -203.4452284 303.68306322 -206.6484375 289.95703125 C-207.49747647 286.37948978 -208.49008895 282.86872499 -209.5078125 279.3359375 C-210.21827387 276.65409679 -210.89683808 273.96477446 -211.5703125 271.2734375 C-211.74369141 270.59216797 -211.91707031 269.91089844 -212.09570312 269.20898438 C-217.5430048 247.48239034 -215.3865185 222.89618569 -212.2578125 200.8984375 C-212.15539246 200.16220154 -212.05297241 199.42596558 -211.94744873 198.66741943 C-210.71727313 190.01297504 -208.95831387 181.70725721 -206.37158203 173.34716797 C-205.5618425 170.5242942 -205.03779546 167.80337854 -204.6328125 164.8984375 C-203.5491186 158.33821907 -200.93930905 152.41844995 -198.3425293 146.33837891 C-197.75857221 144.93749676 -197.19666007 143.52731383 -196.65161133 142.11083984 C-193.86256447 134.87031295 -190.45433419 128.00135482 -186.9453125 121.0859375 C-186.36845703 119.94125 -185.79160156 118.7965625 -185.19726562 117.6171875 C-184.1261347 115.49222188 -183.05334858 113.36808907 -181.97827148 111.24511719 C-180.9572543 109.22512038 -179.95233375 107.1969388 -178.96020508 105.16259766 C-177.2351382 101.80525621 -175.08532728 98.9123359 -172.7578125 95.9609375 C-172.31824219 95.39802002 -171.87867188 94.83510254 -171.42578125 94.25512695 C-163.42903947 84.08288672 -163.42903947 84.08288672 -160.5078125 81.3359375 C-159.8478125 81.3359375 -159.1878125 81.3359375 -158.5078125 81.3359375 C-158.2396875 80.75328125 -157.9715625 80.170625 -157.6953125 79.5703125 C-156.49300259 77.30807149 -155.16955337 75.53017432 -153.5078125 73.5859375 C-152.9921875 72.97234375 -152.4765625 72.35875 -151.9453125 71.7265625 C-150.5078125 70.3359375 -150.5078125 70.3359375 -148.5078125 70.3359375 C-148.25257813 69.75457031 -147.99734375 69.17320313 -147.734375 68.57421875 C-143.96055227 61.6875932 -136.44754618 56.35217902 -130.5078125 51.3359375 C-129.59257812 50.55476563 -128.67734375 49.77359375 -127.734375 48.96875 C-126.29191406 47.75832031 -126.29191406 47.75832031 -124.8203125 46.5234375 C-123.92957031 45.77449219 -123.03882812 45.02554688 -122.12109375 44.25390625 C-119.62480902 42.4218049 -117.42494194 41.32933834 -114.5078125 40.3359375 C-114.5078125 39.6759375 -114.5078125 39.0159375 -114.5078125 38.3359375 C-107.81108921 33.54566877 -100.46736758 30.31701654 -92.7109375 27.671875 C-90.08188633 26.57536829 -88.04962428 25.46562414 -85.6875 23.9296875 C-81.44423807 21.1979868 -77.07540915 19.28966308 -72.3828125 17.4609375 C-71.09769775 16.95385254 -71.09769775 16.95385254 -69.78662109 16.43652344 C-59.84933987 12.58809524 -49.70836538 9.40421514 -39.5078125 6.3359375 C-38.79270508 6.11921387 -38.07759766 5.90249023 -37.34082031 5.67919922 C-33.41264987 4.49532725 -29.48584701 3.33996296 -25.5078125 2.3359375 C-24.53701248 2.08537849 -24.53701248 2.08537849 -23.54660034 1.82975769 C-15.7352637 0.02834727 -7.9699449 0.0081739 0 0 Z " fill="#030303" transform="translate(232.5078125,19.6640625)"/>
<path d="M0 0 C3.27951788 2.45237631 6.45056838 5.03010201 9.6015625 7.64453125 C10.14022949 8.08700195 10.67889648 8.52947266 11.23388672 8.98535156 C31.25106553 25.46729101 31.25106553 25.46729101 38.4140625 34.08203125 C40.54589567 36.64127352 42.41635112 38.31403281 45.3515625 39.89453125 C48.44981938 41.56282342 49.80761302 42.68979092 51.6015625 45.64453125 C54.600977 44.27950343 56.87607893 42.70652602 59.328125 40.51171875 C60.37274902 39.57730957 60.37274902 39.57730957 61.43847656 38.62402344 C64.98710132 35.37659121 68.48828046 32.08156493 71.9765625 28.76953125 C81.6516227 19.63986861 91.34239006 10.86075869 101.98876953 2.87207031 C103.52350931 1.70393958 105.03025373 0.4992954 106.53515625 -0.70703125 C130.07088995 -19.29291594 157.52587689 -23.5993101 186.89941406 -21.16503906 C208.95125052 -18.47311085 228.67900968 -3.22383575 242.2109375 13.45703125 C259.24394001 36.16770126 265.42520343 60.53636908 262.20703125 88.7578125 C258.07442132 113.15354212 244.27342869 135.62869154 225.6015625 151.64453125 C221.38760731 154.55261237 217.06386707 157.13071146 212.6015625 159.64453125 C210.97541016 160.65 210.97541016 160.65 209.31640625 161.67578125 C205.05749241 164.10323883 200.54420678 165.42396063 195.8515625 166.76953125 C194.95977295 167.02814941 194.0679834 167.28676758 193.14916992 167.55322266 C165.01352178 175.57584749 139.73456086 170.23281276 114.2890625 156.33203125 C107.69043973 152.60379347 101.64555422 148.37964684 96.6015625 142.64453125 C96.6015625 141.98453125 96.6015625 141.32453125 96.6015625 140.64453125 C95.49941406 140.24814453 95.49941406 140.24814453 94.375 139.84375 C87.68416876 136.95067227 82.3463702 131.56562247 77.3359375 126.3828125 C75.55719882 124.60006765 73.70379322 122.96721129 71.7890625 121.33203125 C68.48462181 118.46818265 65.30063514 115.50424285 62.1640625 112.45703125 C61.31972656 111.63847656 60.47539062 110.81992187 59.60546875 109.9765625 C57.67607479 107.73124438 56.96668843 106.53234546 56.6015625 103.64453125 C52.33264502 103.87031655 50.15178805 104.16829884 46.87109375 107.0078125 C46.06027344 107.98105469 45.24945313 108.95429688 44.4140625 109.95703125 C43.59550781 110.92253906 42.77695313 111.88804687 41.93359375 112.8828125 C41.16402344 113.79417969 40.39445313 114.70554687 39.6015625 115.64453125 C38.27441049 116.98401738 36.94177209 118.31810982 35.6015625 119.64453125 C34.52940188 120.88625499 33.46687215 122.13635873 32.4140625 123.39453125 C14.59612398 143.81170394 -15.89934916 165.96018738 -43.3984375 169.64453125 C-45.76210394 169.7717044 -48.02934955 169.7453435 -50.3984375 169.64453125 C-50.3984375 170.30453125 -50.3984375 170.96453125 -50.3984375 171.64453125 C-72.88976934 170.8525376 -93.14344284 169.35708297 -112.3984375 156.64453125 C-113.76742187 155.75121094 -113.76742187 155.75121094 -115.1640625 154.83984375 C-126.10702678 147.30483121 -135.3726797 137.93662666 -142.3984375 126.64453125 C-142.95402344 125.80792969 -143.50960937 124.97132813 -144.08203125 124.109375 C-145.3984375 121.64453125 -145.3984375 121.64453125 -145.3984375 117.64453125 C-146.0584375 117.64453125 -146.7184375 117.64453125 -147.3984375 117.64453125 C-150.73554272 110.14027941 -152.78678173 102.68548049 -154.3984375 94.64453125 C-154.53668945 93.9690625 -154.67494141 93.29359375 -154.81738281 92.59765625 C-156.62289171 83.66385152 -158.27416405 74.80597828 -157.3984375 65.64453125 C-156.9034375 65.14953125 -156.9034375 65.14953125 -156.3984375 64.64453125 C-156.08427954 62.85722716 -155.77608316 61.06865126 -155.49951172 59.27514648 C-152.28916515 38.64900464 -144.47044794 21.18949979 -130.3984375 5.64453125 C-129.88410156 5.03738281 -129.36976563 4.43023437 -128.83984375 3.8046875 C-95.53698136 -32.95821255 -37.32642305 -26.73853409 0 0 Z " fill="#CEB262" transform="translate(197.3984375,176.35546875)"/>
<path d="M0 0 C0.90685547 0.51626953 0.90685547 0.51626953 1.83203125 1.04296875 C9.87234536 6.07043378 15.48127573 15.347678 19 24 C19.29777344 24.68707031 19.59554687 25.37414062 19.90234375 26.08203125 C25.17872956 40.3550196 22.4300214 57.49951402 16.47265625 71.046875 C9.3955672 85.23859733 -1.07977902 93.14768271 -15.54296875 99.03515625 C-31.51493162 104.35914387 -48.10049105 101.10977506 -62.91748047 94.09179688 C-75.86060426 87.58048974 -90.55013271 78.22009179 -99.625 66.8125 C-101.90404537 63.84128828 -101.90404537 63.84128828 -105.25 61.875 C-108.30895831 59.78934661 -108.32377254 59.38113729 -109 56 C-110.76591887 54.99083967 -110.76591887 54.99083967 -113 54 C-115.06981929 52.4058849 -117.02142006 50.70877359 -119 49 C-117.59116237 44.63289625 -115.51802525 42.15465281 -112.2734375 38.9453125 C-111.57367294 38.2483577 -111.57367294 38.2483577 -110.85977173 37.537323 C-109.87306628 36.55731711 -108.88278073 35.58090416 -107.88916016 34.60791016 C-106.39368193 33.14329637 -104.90886066 31.66856321 -103.42578125 30.19140625 C-76.12912209 3.11545322 -38.02867296 -23.39668832 0 0 Z " fill="#000000" transform="translate(397,205)"/>
<path d="M0 0 C13.58961432 7.01968292 25.33612908 14.85574317 36.3125 25.5 C37.57460295 26.59349194 38.84460841 27.67798049 40.125 28.75 C45.08706011 33.02727475 49.62291344 37.76367203 54.21020508 42.43457031 C54.83950928 43.07233398 55.46881348 43.71009766 56.1171875 44.3671875 C56.68421387 44.94581543 57.25124023 45.52444336 57.83544922 46.12060547 C59.28360166 47.60372935 59.28360166 47.60372935 61.3125 48.5 C58.84048626 57.28938219 51.06007272 62.61176052 44.07739258 67.78564453 C40.19647197 70.70094781 37.17076234 73.747164 34.1171875 77.484375 C28.50571292 83.75173622 22.11018677 88.47640717 14.3125 91.5 C13.76335937 92.1084375 13.21421875 92.716875 12.6484375 93.34375 C9.4279437 96.31651351 5.91934224 97.60222836 1.875 99.1875 C1.12412109 99.49494141 0.37324219 99.80238281 -0.40039062 100.11914062 C-8.02769782 103.18482171 -14.69492928 103.68227979 -22.875 103.6875 C-23.86564453 103.69974609 -24.85628906 103.71199219 -25.87695312 103.72460938 C-40.86899834 103.75410192 -53.50917465 99.39847929 -64.62109375 88.94140625 C-68.81890908 83.98179457 -71.73197539 78.26394167 -74.6875 72.5 C-75.23664063 71.49195313 -75.78578125 70.48390625 -76.3515625 69.4453125 C-82.08281 56.80975514 -79.88924295 37.87674755 -75.29296875 25.140625 C-72.88922746 19.68980534 -69.89538462 15.67819937 -65.6875 11.5 C-64.94628906 10.72269531 -64.20507812 9.94539062 -63.44140625 9.14453125 C-46.43221058 -7.52950786 -21.18105054 -10.41620603 0 0 Z " fill="#000000" transform="translate(160.6875,201.5)"/>
<path d="M0 0 C3.91520757 5.87281135 6.15026298 12.21763091 8 19 C8.47953125 20.10085937 8.9590625 21.20171875 9.453125 22.3359375 C11.7299807 28.36680824 12.10018968 34.68708132 12.6875 41.0625 C12.75003967 41.72671967 12.81257935 42.39093933 12.87701416 43.07528687 C15.10184476 66.98595821 18.96804723 108.75045252 6 130 C5.46098043 131.98931675 5.46098043 131.98931675 5.33984375 133.953125 C5.26830078 134.654375 5.19675781 135.355625 5.12304688 136.078125 C5.06181641 136.79484375 5.00058594 137.5115625 4.9375 138.25 C4.70513267 140.86355728 4.40033909 143.40224415 4 146 C3.34 146.33 2.68 146.66 2 147 C2.14241648 144.64558284 2.28884808 142.29152516 2.4375 139.9375 C2.51871094 138.62652344 2.59992188 137.31554687 2.68359375 135.96484375 C2.97898249 132.26336762 3.43265388 128.66629552 4 125 C4.99 125 5.98 125 7 125 C7.04898437 124.28199219 7.09796875 123.56398438 7.1484375 122.82421875 C7.8692886 112.84415949 7.8692886 112.84415949 8.51171875 107.99609375 C9.8477349 97.61554513 10.19349247 87.32924079 10.1875 76.875 C10.18831573 76.20446594 10.18913147 75.53393188 10.18997192 74.84307861 C10.77616351 62.6255899 10.77616351 62.6255899 8 51 C7.84621148 49.04225931 7.75028537 47.07982648 7.68359375 45.1171875 C7.64169922 43.95058594 7.59980469 42.78398437 7.55664062 41.58203125 C7.51732422 40.35871094 7.47800781 39.13539063 7.4375 37.875 C7.39431641 36.64394531 7.35113281 35.41289062 7.30664062 34.14453125 C7.20031296 31.09647147 7.09828219 28.0483281 7 25 C6.34 25 5.68 25 5 25 C4.89042969 23.95199219 4.78085937 22.90398437 4.66796875 21.82421875 C4.50849426 20.44523349 4.34830034 19.06633129 4.1875 17.6875 C4.11724609 16.99720703 4.04699219 16.30691406 3.97460938 15.59570312 C3.49636819 11.63586613 3.00359625 9.61182283 0 7 C-0.1875 3.3125 -0.1875 3.3125 0 0 Z " fill="#B7B7B7" transform="translate(468,175)"/>
<path d="M0 0 C0.33 0 0.66 0 1 0 C1.02757191 1.66656881 1.04664803 3.33327851 1.0625 5 C1.07410156 5.928125 1.08570313 6.85625 1.09765625 7.8125 C1 11 1 11 0.50219727 14.45214844 C-0.20115981 19.94495024 -0.14317345 25.42326593 -0.1328125 30.953125 C-0.13424759 32.65804108 -0.13424759 32.65804108 -0.13571167 34.3973999 C-0.13638982 36.79439347 -0.13456107 39.19138891 -0.13037109 41.58837891 C-0.12503766 45.2243267 -0.13031831 48.86014986 -0.13671875 52.49609375 C-0.13605752 54.83593777 -0.13477542 57.17578171 -0.1328125 59.515625 C-0.13483673 60.58790344 -0.13686096 61.66018188 -0.13894653 62.76495361 C-0.11724014 69.88783958 0.30582921 76.91144255 1 84 C-5.54300143 74.18549786 -4.52271786 58.67684462 -4.4375 47.25 C-4.43645264 46.45904938 -4.43540527 45.66809875 -4.43432617 44.85317993 C-4.39310085 29.64313546 -2.77138403 14.96805349 0 0 Z " fill="#D6D6D6" transform="translate(22,212)"/>
<path d="M0 0 C1.51593589 -0.00135037 3.03187136 -0.00329399 4.54780579 -0.00579834 C7.70712453 -0.00872941 10.86632937 -0.00451565 14.02563477 0.00488281 C18.06035972 0.01630569 22.09481935 0.00968724 26.12953472 -0.00226212 C29.25319904 -0.0095104 32.37680105 -0.00717969 35.5004673 -0.00200653 C36.98791346 -0.00067976 38.47536541 -0.00228336 39.96280479 -0.00696564 C42.04395805 -0.01208337 44.12468853 -0.00424928 46.20581055 0.00683594 C47.38588181 0.00842712 48.56595306 0.01001831 49.78178406 0.01165771 C53.54309803 0.29311072 56.59513336 1.11604923 60.17578125 2.265625 C56.56408003 3.34571698 53.69991881 3.00300272 49.97146606 2.53005981 C44.02747788 1.96783713 38.04343031 2.14512496 32.078125 2.16796875 C30.63367258 2.16983747 29.18921952 2.17125923 27.74476624 2.17225647 C23.97191571 2.17604591 20.19910464 2.18584503 16.42626953 2.19696045 C12.56478407 2.20725204 8.70329214 2.21177057 4.84179688 2.21679688 C-2.71355951 2.22747106 -10.26888357 2.24450372 -17.82421875 2.265625 C-17.82421875 2.925625 -17.82421875 3.585625 -17.82421875 4.265625 C-20.86371177 4.94246798 -23.9061104 5.60524372 -26.94921875 6.265625 C-28.233125 6.55179688 -28.233125 6.55179688 -29.54296875 6.84375 C-34.05154669 7.81482833 -38.18067479 8.50922075 -42.82421875 8.265625 C-39.60459054 6.11920619 -36.97659621 5.30954227 -33.26171875 4.265625 C-31.52728516 3.770625 -31.52728516 3.770625 -29.7578125 3.265625 C-28.4481091 2.92646708 -27.1368203 2.59338751 -25.82421875 2.265625 C-24.82663544 2.00534515 -24.82663544 2.00534515 -23.80889893 1.73980713 C-15.9159462 -0.09152984 -8.05245251 -0.02546839 0 0 Z " fill="#B8B8B8" transform="translate(232.82421875,19.734375)"/>
<path d="M0 0 C0.33 0 0.66 0 1 0 C0.4567057 10.75150828 -0.5654176 21.33029339 -2 32 C-2.05929687 32.68320312 -2.11859375 33.36640625 -2.1796875 34.0703125 C-2.48191935 37.29814867 -2.80936187 39.68343121 -4.49609375 42.484375 C-6.58300662 45.97521107 -6.72097192 49.25232394 -7.0625 53.25 C-7.29486733 55.86355728 -7.59966091 58.40224415 -8 61 C-8.99 61.495 -8.99 61.495 -10 62 C-9.85758352 59.64558284 -9.71115192 57.29152516 -9.5625 54.9375 C-9.48128906 53.62652344 -9.40007812 52.31554687 -9.31640625 50.96484375 C-9.02101751 47.26336762 -8.56734612 43.66629552 -8 40 C-7.01 40 -6.02 40 -5 40 C-4.91782227 38.83162598 -4.91782227 38.83162598 -4.83398438 37.63964844 C-4.23680793 29.48551967 -3.43852246 21.37147158 -2.5 13.25 C-2.36980469 12.07695312 -2.23960937 10.90390625 -2.10546875 9.6953125 C-1.97785156 8.58414062 -1.85023438 7.47296875 -1.71875 6.328125 C-1.60466797 5.3268457 -1.49058594 4.32556641 -1.37304688 3.29394531 C-1 1 -1 1 0 0 Z " fill="#D3D3D3" transform="translate(480,260)"/>
<path d="M0 0 C3.91520757 5.87281135 6.15026298 12.21763091 8 19 C8.50015625 20.18464844 9.0003125 21.36929688 9.515625 22.58984375 C11.32824364 27.36576674 11.55129545 31.9331909 11.6875 37 C11.73874023 38.30517578 11.73874023 38.30517578 11.79101562 39.63671875 C11.87257983 41.75738815 11.93798528 43.87866891 12 46 C9.65229357 42.47844036 9.62330386 40.49228157 9.375 36.3125 C9.30023438 35.13300781 9.22546875 33.95351562 9.1484375 32.73828125 C9.07496094 31.38283203 9.07496094 31.38283203 9 30 C8.34 30 7.68 30 7 30 C7 28.35 7 26.7 7 25 C6.34 25 5.68 25 5 25 C4.89042969 23.95199219 4.78085937 22.90398437 4.66796875 21.82421875 C4.50849426 20.44523349 4.34830034 19.06633129 4.1875 17.6875 C4.11724609 16.99720703 4.04699219 16.30691406 3.97460938 15.59570312 C3.49636819 11.63586613 3.00359625 9.61182283 0 7 C-0.1875 3.3125 -0.1875 3.3125 0 0 Z " fill="#AAAAAA" transform="translate(468,175)"/>
<path d="M0 0 C0.66 0.33 1.32 0.66 2 1 C-1.95286043 5.19569827 -6.07574571 8.89166715 -10.625 12.4375 C-14.72624221 15.72522631 -17.49306338 18.70319514 -20.02734375 23.28125 C-22.43355178 27.53318386 -25.92797329 29.55678397 -30 32 C-31.36984198 33.29579647 -32.7151049 34.61992749 -34 36 C-34.66 35.67 -35.32 35.34 -36 35 C-35.50628906 34.51789063 -35.01257813 34.03578125 -34.50390625 33.5390625 C-33.86324219 32.90742187 -33.22257812 32.27578125 -32.5625 31.625 C-31.92441406 30.99851562 -31.28632812 30.37203125 -30.62890625 29.7265625 C-28.92117824 28.08276939 -28.92117824 28.08276939 -28 26 C-27.34 26 -26.68 26 -26 26 C-25.74476562 25.41863281 -25.48953125 24.83726563 -25.2265625 24.23828125 C-21.43738239 17.32363092 -13.92003436 12.07756793 -8 7 C-6.49872674 5.68895657 -4.99869166 4.37649374 -3.5 3.0625 C-2.33333333 2.04166667 -1.16666667 1.02083333 0 0 Z " fill="#C9C9C9" transform="translate(110,64)"/>
<path d="M0 0 C1.24265625 0.00902344 2.4853125 0.01804687 3.765625 0.02734375 C6.80229004 0.05070271 9.83853853 0.08345717 12.875 0.125 C12.875 0.455 12.875 0.785 12.875 1.125 C-6.46542553 2.31648936 -6.46542553 2.31648936 -16.125 2.125 C-16.125 2.785 -16.125 3.445 -16.125 4.125 C-19.16449302 4.80184298 -22.20689165 5.46461872 -25.25 6.125 C-26.53390625 6.41117188 -26.53390625 6.41117188 -27.84375 6.703125 C-32.35232794 7.67420333 -36.48145604 8.36859575 -41.125 8.125 C-37.90537179 5.97858119 -35.27737746 5.16891727 -31.5625 4.125 C-29.82806641 3.63 -29.82806641 3.63 -28.05859375 3.125 C-26.7490256 2.78532024 -25.43769548 2.45238613 -24.125 2.125 C-23.03687012 1.84487061 -23.03687012 1.84487061 -21.92675781 1.55908203 C-14.61313909 -0.13224848 -7.47710246 -0.10407102 0 0 Z " fill="#E0E0E0" transform="translate(231.125,19.875)"/>
<path d="M0 0 C0.66 0 1.32 0 2 0 C4.3197327 10.50783681 5.4179602 20.22591491 5 31 C4.34 31.33 3.68 31.66 3 32 C2.93941406 31.37351563 2.87882812 30.74703125 2.81640625 30.1015625 C2.73261719 29.28429687 2.64882813 28.46703125 2.5625 27.625 C2.48128906 26.81289062 2.40007812 26.00078125 2.31640625 25.1640625 C2.10909886 22.95727195 2.10909886 22.95727195 1 21 C0.84824451 19.40737934 0.75099675 17.80935144 0.68359375 16.2109375 C0.64169922 15.26992187 0.59980469 14.32890625 0.55664062 13.359375 C0.51732422 12.37453125 0.47800781 11.3896875 0.4375 10.375 C0.39431641 9.38242188 0.35113281 8.38984375 0.30664062 7.3671875 C0.20038931 4.91160162 0.09835036 2.45591297 0 0 Z " fill="#8F8F8F" transform="translate(475,205)"/>
<path d="M0 0 C0.33 0 0.66 0 1 0 C1.02505615 0.60360352 1.0501123 1.20720703 1.07592773 1.82910156 C1.73314114 17.93426027 1.73314114 17.93426027 3 34 C0.73700063 30.60550095 0.09589042 27.55553627 -0.625 23.625 C-0.82065552 22.56611572 -0.82065552 22.56611572 -1.02026367 21.48583984 C-2.12833533 15.0513624 -2.79083804 8.51157551 -2 2 C-1.34 1.34 -0.68 0.68 0 0 Z " fill="#CACACA" transform="translate(20,262)"/>
<path d="M0 0 C0.33 0.66 0.66 1.32 1 2 C-2.67823374 6.46264094 -5.85344147 10.21807647 -11 13 C-12.36984198 14.29579647 -13.7151049 15.61992749 -15 17 C-15.66 16.67 -16.32 16.34 -17 16 C-16.50628906 15.51789063 -16.01257813 15.03578125 -15.50390625 14.5390625 C-14.86324219 13.90742187 -14.22257812 13.27578125 -13.5625 12.625 C-12.92441406 11.99851562 -12.28632812 11.37203125 -11.62890625 10.7265625 C-9.92117824 9.08276939 -9.92117824 9.08276939 -9 7 C-8.236875 6.54625 -7.47375 6.0925 -6.6875 5.625 C-4.01605453 4.00970739 -2.11790496 2.27478681 0 0 Z " fill="#6A6A6A" transform="translate(91,83)"/>
<path d="M0 0 C0.66 0.33 1.32 0.66 2 1 C2.05386629 3.12472576 2.09273071 5.24983652 2.125 7.375 C2.14820313 8.55835938 2.17140625 9.74171875 2.1953125 10.9609375 C2 14 2 14 0 16 C-1.08489672 12.74530985 -1.13323992 10.29456791 -1.125 6.875 C-1.12757812 5.79992187 -1.13015625 4.72484375 -1.1328125 3.6171875 C-1 1 -1 1 0 0 Z " fill="#978044" transform="translate(41,241)"/>
<path d="M0 0 C0.99 0.495 0.99 0.495 2 1 C2.90833969 3.72501908 3.18359985 5.62233971 3.31640625 8.44921875 C3.35830078 9.29677734 3.40019531 10.14433594 3.44335938 11.01757812 C3.48267578 11.89865234 3.52199219 12.77972656 3.5625 13.6875 C3.62727539 15.02651367 3.62727539 15.02651367 3.69335938 16.39257812 C3.79935353 18.59490108 3.90142051 20.79733473 4 23 C-0.21365034 16.67952449 -0.3482453 7.48727403 0 0 Z " fill="#E7E7E7" transform="translate(476,198)"/>
<path d="M0 0 C1.18851562 0.10183594 2.37703125 0.20367187 3.6015625 0.30859375 C4.51679688 0.39238281 5.43203125 0.47617187 6.375 0.5625 C4.375 2.5625 4.375 2.5625 0.4609375 2.7578125 C-1.10949351 2.74450376 -2.67986221 2.72063602 -4.25 2.6875 C-5.05179687 2.67847656 -5.85359375 2.66945313 -6.6796875 2.66015625 C-8.66158523 2.63656223 -10.64332981 2.60069065 -12.625 2.5625 C-7.81273356 0.15636678 -5.50499788 -0.48573511 0 0 Z " fill="#958046" transform="translate(367.625,345.4375)"/>
<path d="M0 0 C3.17391668 3.00235362 5.71252601 6.19753642 8.25 9.75 C8.95640625 10.73484375 9.6628125 11.7196875 10.390625 12.734375 C10.92171875 13.48203125 11.4528125 14.2296875 12 15 C11.67 15.66 11.34 16.32 11 17 C8.04626888 14.18349975 5.60291066 11.27079011 3.25 7.9375 C2.63640625 7.08027344 2.0228125 6.22304688 1.390625 5.33984375 C0 3 0 3 0 0 Z " fill="#C4C4C4" transform="translate(56,375)"/>
<path d="M0 0 C3.4375 0.375 3.4375 0.375 5.4375 2.375 C1.3169254 4.37285435 -2.01444365 4.55335515 -6.5625 4.375 C-4.71562606 0.89853141 -4.02907592 0.42411325 0 0 Z " fill="#AD9450" transform="translate(153.5625,341.625)"/>
<path d="M0 0 C2.64 0 5.28 0 8 0 C7.67 1.98 7.34 3.96 7 6 C6.34 6 5.68 6 5 6 C5 5.34 5 4.68 5 4 C3.68 4.33 2.36 4.66 1 5 C0.67 3.35 0.34 1.7 0 0 Z " fill="#D9BE6C" transform="translate(281,279)"/>
<path d="M0 0 C1.31602523 0.61754259 2.62773556 1.24428742 3.9375 1.875 C4.66839844 2.22304688 5.39929688 2.57109375 6.15234375 2.9296875 C8 4 8 4 9 6 C8.34 6.66 7.68 7.32 7 8 C4.36 6.02 1.72 4.04 -1 2 C-0.67 1.34 -0.34 0.68 0 0 Z " fill="#B19751" transform="translate(75,323)"/>
<path d="M0 0 C3.35019791 5.02529687 6.80384842 10.77017473 6 17 C4 14 4 14 3.5625 12 C3.17305687 9.89531744 3.17305687 9.89531744 1.4375 8.6875 C-0.83738543 6.01698232 -0.19045839 3.36476492 0 0 Z " fill="#E0E0E0" transform="translate(468,175)"/>
<path d="M0 0 C4.21296303 0.67407408 7.42592112 2.77463013 11 5 C11.33 5.66 11.66 6.32 12 7 C7.24518354 6.42365861 4.02951788 4.44931479 0 2 C0 1.34 0 0.68 0 0 Z " fill="#C7C7C7" transform="translate(366,51)"/>
<path d="M0 0 C0.66 0 1.32 0 2 0 C0.7580393 3.43927579 -0.55740284 6.25207819 -3 9 C-3.66 9 -4.32 9 -5 9 C-3.7580393 5.56072421 -2.44259716 2.74792181 0 0 Z " fill="#9E9E9E" transform="translate(435,384)"/>
<path d="M0 0 C0.680625 0.12375 1.36125 0.2475 2.0625 0.375 C1.0725 1.035 0.0825 1.695 -0.9375 2.375 C-2.16970174 3.24572072 -3.39880459 4.12084102 -4.625 5 C-5.55892578 5.66902344 -5.55892578 5.66902344 -6.51171875 6.3515625 C-7.21748047 6.85816406 -7.21748047 6.85816406 -7.9375 7.375 C-8.5975 7.045 -9.2575 6.715 -9.9375 6.375 C-3.86310175 0.49316193 -3.86310175 0.49316193 0 0 Z " fill="#A8A8A8" transform="translate(361.9375,449.625)"/>
<path d="M0 0 C1.98 0 3.96 0 6 0 C4.25 2 4.25 2 2 4 C0.68 4 -0.64 4 -2 4 C-1.34 2.68 -0.68 1.36 0 0 Z " fill="#E1C979" transform="translate(320,166)"/>
<path d="M0 0 C2.05078125 0.03255208 4.1015625 0.06510417 6.15234375 0.09765625 C6.15234375 0.75765625 6.15234375 1.41765625 6.15234375 2.09765625 C2.77734375 2.72265625 2.77734375 2.72265625 -0.84765625 3.09765625 C-1.50765625 2.43765625 -2.16765625 1.77765625 -2.84765625 1.09765625 C-1.84765625 0.09765625 -1.84765625 0.09765625 0 0 Z " fill="#AEAEAE" transform="translate(208.84765625,21.90234375)"/>
</svg>
